# xmcd CD database file
#
# Track frame offsets:
#	150
#	17682
#	44652
#	61647
#	81087
#	104990
#	126015
#	150142
#	170882
#	182000
#	208400
#
# Disc length: 2934 seconds
#
# Revision: 0
# Processed by: cddbd v1.5.2PL0 Copyright (c) Steve Scherf et al.
# Submitted via: CDex 1.70beta2
#
DISCID=950b740b
DTITLE=James Blood Ulmer - Bad Blood in the City
DYEAR=2007
DGENRE=Blues
TTITLE0=Survivors of the Hurricane
TTITLE1=Sad Days, Lonely Nights
TTITLE2=Katrina
TTITLE3=Let's Talk About Jesus
TTITLE4=This Land is Nobody's Land
TTITLE5=Dead Presidents
TTITLE6=Commit a Crime
TTITLE7=Grinnin' in Your Face
TTITLE8=There is Power in the Blues
TTITLE9=Backwater Blues
TTITLE10=Old Slave Master
EXTD=YEAR: 2007
EXTT0=
EXTT1=
EXTT2=
EXTT3=
EXTT4=
EXTT5=
EXTT6=
EXTT7=
EXTT8=
EXTT9=
EXTT10=
PLAYORDER=
